<svg width="33" height="33" viewBox="0 0 33 33" fill="none" xmlns="http://www.w3.org/2000/svg">
<circle cx="16.9159" cy="16.1174" r="16" fill="#EDEFF6"/>
<path opacity="0.15" d="M19.3113 12.25C19.9164 12.25 20.4068 11.6157 20.4068 10.8333C20.4068 10.0509 19.9164 9.41663 19.3113 9.41663C18.7063 9.41663 18.2159 10.0509 18.2159 10.8333C18.2159 11.6157 18.7063 12.25 19.3113 12.25Z" fill="#1D2E5B"/>
<path opacity="0.15" d="M18.6416 15.7697C18.7673 16.012 18.9477 16.1984 19.1582 16.3036C19.3686 16.4087 19.599 16.4276 19.8181 16.3576L21.6344 15.7704L21.3698 14.3962L19.5535 14.9834L18.7982 13.5193C18.6369 13.2066 18.3864 12.9892 18.1015 12.9144L15.9949 12.369C15.7593 12.3078 15.5146 12.3487 15.2987 12.4853C15.0828 12.6219 14.9076 12.8466 14.8003 13.1248L13.8922 15.4736L14.8721 16.1076L15.7802 13.758L16.8576 14.0371L14.0719 20.0416H11.6432V21.4583H14.0719C14.4542 21.4583 14.814 21.1948 15.0112 20.7705L16.0618 18.5067L18.893 19.2391L19.8877 23.0988L20.9262 22.6504L19.932 18.7914C19.8707 18.5545 19.7621 18.3427 19.6173 18.1773C19.4725 18.0119 19.2965 17.8988 19.1071 17.8494L17.4426 17.4194L18.4132 15.327L18.6416 15.7697Z" fill="#1D2E5B"/>
</svg>
