<svg width="33" height="33" viewBox="0 0 33 33" fill="none" xmlns="http://www.w3.org/2000/svg">
<circle cx="16.9159" cy="16.1174" r="16" fill="#EDEFF6"/>
<path opacity="0.15" d="M20.9581 21.9656C20.4442 21.9656 19.9418 21.8131 19.5145 21.5274C19.0872 21.2418 18.7542 20.8357 18.5575 20.3606C18.3609 19.8855 18.3094 19.3627 18.4097 18.8584C18.5099 18.354 18.7574 17.8908 19.1208 17.5271C19.4842 17.1635 19.9471 16.9159 20.4512 16.8156C20.9552 16.7153 21.4776 16.7668 21.9524 16.9635C22.4272 17.1603 22.833 17.4936 23.1185 17.9211C23.404 18.3487 23.5564 18.8514 23.5564 19.3656C23.5556 20.055 23.2816 20.7158 22.7945 21.2033C22.3074 21.6907 21.6469 21.9649 20.9581 21.9656ZM20.9581 17.67C20.6229 17.67 20.2953 17.7694 20.0166 17.9557C19.738 18.1421 19.5208 18.4069 19.3925 18.7167C19.2642 19.0266 19.2307 19.3675 19.2961 19.6964C19.3615 20.0254 19.5228 20.3275 19.7598 20.5646C19.9968 20.8018 20.2988 20.9633 20.6275 21.0287C20.9562 21.0941 21.2969 21.0605 21.6065 20.9322C21.9162 20.8039 22.1808 20.5865 22.367 20.3077C22.5532 20.0288 22.6526 19.701 22.6526 19.3656C22.6521 18.9161 22.4734 18.4851 22.1557 18.1672C21.838 17.8493 21.4073 17.6705 20.9581 17.67Z" fill="#1D2E5B"/>
<path opacity="0.15" d="M13.5021 21.9656C12.9882 21.9656 12.4858 21.8131 12.0585 21.5274C11.6312 21.2418 11.2982 20.8357 11.1015 20.3606C10.9049 19.8855 10.8534 19.3627 10.9537 18.8584C11.0539 18.354 11.3014 17.8908 11.6648 17.5271C12.0282 17.1635 12.4911 16.9159 12.9952 16.8156C13.4992 16.7153 14.0216 16.7668 14.4964 16.9635C14.9712 17.1603 15.377 17.4936 15.6625 17.9211C15.948 18.3487 16.1004 18.8514 16.1004 19.3656C16.0996 20.055 15.8256 20.7158 15.3385 21.2033C14.8514 21.6907 14.191 21.9649 13.5021 21.9656ZM13.5021 17.67C13.1669 17.67 12.8393 17.7694 12.5606 17.9557C12.282 18.1421 12.0648 18.4069 11.9365 18.7167C11.8083 19.0266 11.7747 19.3675 11.8401 19.6964C11.9055 20.0254 12.0669 20.3275 12.3038 20.5646C12.5408 20.8018 12.8428 20.9633 13.1715 21.0287C13.5002 21.0941 13.8409 21.0605 14.1505 20.9322C14.4602 20.8039 14.7248 20.5865 14.911 20.3077C15.0972 20.0288 15.1966 19.701 15.1966 19.3656C15.1961 18.9161 15.0174 18.4851 14.6997 18.1672C14.382 17.8493 13.9513 17.6705 13.5021 17.67Z" fill="#1D2E5B"/>
<path opacity="0.15" d="M19.0376 12.25C19.1566 12.2505 19.2746 12.2233 19.3846 12.1698C19.4946 12.1164 19.5945 12.0379 19.6786 11.9387C19.7626 11.8396 19.8291 11.7219 19.8742 11.5924C19.9193 11.4629 19.9422 11.3242 19.9414 11.1842C19.9427 11.045 19.9204 10.9068 19.8757 10.7778C19.8311 10.6488 19.7651 10.5316 19.6814 10.433C19.5978 10.3344 19.4983 10.2563 19.3887 10.2035C19.2791 10.1506 19.1617 10.1239 19.0433 10.125C18.9246 10.1246 18.807 10.1516 18.6972 10.2046C18.5874 10.2576 18.4876 10.3355 18.4034 10.4339C18.3192 10.5322 18.2523 10.6491 18.2066 10.7779C18.1608 10.9066 18.137 11.0447 18.1367 11.1842C18.1363 11.3237 18.1593 11.462 18.2044 11.5911C18.2495 11.7201 18.3157 11.8375 18.3994 11.9365C18.483 12.0355 18.5825 12.1141 18.692 12.1679C18.8015 12.2217 18.9189 12.2496 19.0376 12.25Z" fill="#1D2E5B"/>
<path opacity="0.15" d="M20.3805 14.3751H19.1446C19.1244 14.3751 19.1045 14.3687 19.087 14.3565C19.0696 14.3444 19.0552 14.3269 19.0455 14.306L18.1491 12.3746C18.0859 12.2311 17.9949 12.107 17.8834 12.0125C17.7719 11.918 17.643 11.8557 17.5072 11.8307C17.3714 11.8056 17.2325 11.8185 17.1017 11.8683C16.971 11.9181 16.852 12.0034 16.7545 12.1173L14.7815 14.4548C14.6157 14.6537 14.5216 14.9201 14.5188 15.1985C14.5188 15.7762 14.8747 15.9821 15.0413 16.0983C15.8462 16.6435 16.413 17.0423 16.724 17.2637C16.7405 17.2756 16.7542 17.2922 16.7637 17.312C16.7732 17.3319 16.7782 17.3542 16.7782 17.377V19.672C16.7782 19.9578 16.9652 20.2032 17.2083 20.2175C17.2694 20.221 17.3304 20.2098 17.3877 20.1848C17.445 20.1597 17.4973 20.1212 17.5416 20.0717C17.5859 20.0222 17.6211 19.9626 17.6453 19.8965C17.6694 19.8305 17.6819 19.7594 17.682 19.6876V16.8321C17.682 16.7478 17.665 16.6646 17.6323 16.5896C17.5995 16.5145 17.5521 16.4497 17.4939 16.4005L16.4489 15.5169C16.4358 15.5059 16.4248 15.4917 16.4168 15.4753C16.4087 15.4588 16.4037 15.4406 16.4022 15.4217C16.4006 15.4028 16.4025 15.3838 16.4078 15.3658C16.413 15.3479 16.4214 15.3315 16.4325 15.3177L17.6187 13.8305C17.6309 13.8152 17.6459 13.8035 17.6627 13.7964C17.6794 13.7892 17.6974 13.7868 17.715 13.7894C17.7327 13.792 17.7496 13.7994 17.7644 13.8111C17.7792 13.8228 17.7914 13.8385 17.8 13.8568L18.4163 15.1643C18.4554 15.2472 18.5127 15.3163 18.5823 15.3643C18.6518 15.4124 18.731 15.4377 18.8117 15.4376H20.3932C20.4544 15.4377 20.515 15.4231 20.5713 15.3948C20.6276 15.3666 20.6784 15.3251 20.7207 15.273C20.763 15.221 20.7958 15.1594 20.8172 15.0919C20.8385 15.0245 20.8481 14.9526 20.8451 14.8808C20.8332 14.5949 20.6237 14.3751 20.3805 14.3751Z" fill="#1D2E5B"/>
</svg>
