<svg width="33" height="33" viewBox="0 0 33 33" fill="none" xmlns="http://www.w3.org/2000/svg">
<circle cx="15.7585" cy="15.7585" r="15.7585" fill="white"/>
<path opacity="0.15" d="M20.1047 22.1719C19.5056 22.1719 18.9199 22.0019 18.4218 21.6836C17.9237 21.3652 17.5354 20.9127 17.3061 20.3832C17.0769 19.8538 17.0169 19.2712 17.1338 18.7091C17.2506 18.1471 17.5391 17.6308 17.9628 17.2256C18.3864 16.8204 18.9262 16.5444 19.5138 16.4326C20.1014 16.3208 20.7104 16.3782 21.2639 16.5975C21.8174 16.8168 22.2905 17.1882 22.6234 17.6647C22.9562 18.1412 23.1339 18.7014 23.1339 19.2744C23.133 20.0426 22.8136 20.7791 22.2457 21.3223C21.6778 21.8655 20.9078 22.171 20.1047 22.1719V22.1719ZM20.1047 17.3848C19.714 17.3848 19.332 17.4956 19.0072 17.7032C18.6823 17.9109 18.4291 18.206 18.2795 18.5513C18.13 18.8966 18.0909 19.2765 18.1671 19.6431C18.2434 20.0096 18.4315 20.3463 18.7078 20.6106C18.9841 20.8749 19.3361 21.0548 19.7193 21.1278C20.1025 21.2007 20.4997 21.1632 20.8607 21.0202C21.2217 20.8772 21.5302 20.635 21.7473 20.3242C21.9644 20.0135 22.0803 19.6482 22.0803 19.2744C22.0796 18.7734 21.8713 18.2931 21.501 17.9389C21.1306 17.5846 20.6285 17.3854 20.1047 17.3848V17.3848Z" fill="#1D2E5B"/>
<path opacity="0.15" d="M11.4123 22.1719C10.8132 22.1719 10.2276 22.0019 9.72942 21.6836C9.23127 21.3652 8.84302 20.9127 8.61375 20.3832C8.38448 19.8538 8.32449 19.2712 8.44137 18.7091C8.55825 18.1471 8.84675 17.6308 9.27039 17.2256C9.69402 16.8204 10.2338 16.5444 10.8214 16.4326C11.409 16.3208 12.018 16.3782 12.5715 16.5975C13.125 16.8168 13.5981 17.1882 13.931 17.6647C14.2638 18.1412 14.4415 18.7014 14.4415 19.2744C14.4406 20.0426 14.1212 20.7791 13.5533 21.3223C12.9854 21.8655 12.2154 22.171 11.4123 22.1719V22.1719ZM11.4123 17.3848C11.0216 17.3848 10.6397 17.4956 10.3148 17.7032C9.9899 17.9109 9.73669 18.206 9.58717 18.5513C9.43764 18.8966 9.39852 19.2765 9.47475 19.6431C9.55097 20.0096 9.73913 20.3463 10.0154 20.6106C10.2917 20.8749 10.6437 21.0548 11.0269 21.1278C11.4101 21.2007 11.8074 21.1632 12.1683 21.0202C12.5293 20.8772 12.8379 20.635 13.0549 20.3242C13.272 20.0135 13.3879 19.6482 13.3879 19.2744C13.3873 18.7734 13.1789 18.2931 12.8086 17.9389C12.4382 17.5846 11.9361 17.3854 11.4123 17.3848V17.3848Z" fill="#1D2E5B"/>
<path opacity="0.15" d="M17.8658 12.0938C18.0045 12.0942 18.142 12.0684 18.2703 12.0177C18.3986 11.967 18.5151 11.8925 18.613 11.7985C18.711 11.7045 18.7885 11.5928 18.8411 11.47C18.8937 11.3471 18.9203 11.2155 18.9194 11.0828C18.9209 10.9507 18.8949 10.8197 18.8429 10.6973C18.7908 10.575 18.7138 10.4638 18.6163 10.3702C18.5189 10.2767 18.4028 10.2027 18.2751 10.1525C18.1474 10.1024 18.0104 10.0771 17.8723 10.0781C17.734 10.0777 17.5969 10.1034 17.4689 10.1536C17.3409 10.2039 17.2245 10.2778 17.1264 10.3711C17.0282 10.4644 16.9502 10.5752 16.8969 10.6974C16.8435 10.8195 16.8159 10.9504 16.8154 11.0828C16.815 11.2151 16.8418 11.3463 16.8944 11.4687C16.9469 11.5911 17.0242 11.7025 17.1217 11.7963C17.2192 11.8902 17.3351 11.9648 17.4628 12.0158C17.5905 12.0669 17.7274 12.0933 17.8658 12.0938V12.0938Z" fill="#1D2E5B"/>
<path opacity="0.15" d="M19.4314 14.1094H17.9906C17.9669 14.1094 17.9437 14.1033 17.9234 14.0918C17.903 14.0803 17.8863 14.0637 17.875 14.0439L16.8299 12.2119C16.7563 12.0757 16.6502 11.9581 16.5202 11.8684C16.3902 11.7788 16.2399 11.7197 16.0816 11.6959C15.9233 11.6722 15.7614 11.6844 15.6089 11.7316C15.4564 11.7789 15.3178 11.8598 15.2041 11.9678L12.9039 14.185C12.7106 14.3736 12.6009 14.6263 12.5977 14.8904C12.5977 15.4384 13.0125 15.6337 13.2068 15.7439C14.1452 16.2611 14.806 16.6393 15.1685 16.8494C15.1878 16.8606 15.2037 16.8764 15.2148 16.8952C15.2258 16.914 15.2317 16.9352 15.2317 16.9568V19.1336C15.2317 19.4048 15.4497 19.6375 15.7332 19.6511C15.8043 19.6544 15.8755 19.6438 15.9423 19.62C16.009 19.5963 16.0701 19.5598 16.1217 19.5128C16.1733 19.4658 16.2144 19.4093 16.2426 19.3467C16.2707 19.284 16.2852 19.2166 16.2853 19.1484V16.4399C16.2854 16.36 16.2655 16.2811 16.2274 16.2099C16.1893 16.1387 16.134 16.0772 16.066 16.0305L14.8478 15.1925C14.8325 15.182 14.8197 15.1685 14.8103 15.1529C14.8009 15.1374 14.7952 15.12 14.7933 15.1021C14.7915 15.0842 14.7938 15.0662 14.7999 15.0492C14.806 15.0321 14.8158 15.0166 14.8287 15.0035L16.2116 13.5929C16.2258 13.5784 16.2433 13.5673 16.2628 13.5605C16.2824 13.5537 16.3033 13.5514 16.3239 13.5539C16.3445 13.5563 16.3642 13.5633 16.3814 13.5744C16.3987 13.5855 16.4129 13.6004 16.423 13.6178L17.1414 14.858C17.1871 14.9366 17.2539 15.0021 17.3349 15.0477C17.416 15.0933 17.5083 15.1173 17.6024 15.1172H19.4462C19.5176 15.1173 19.5882 15.1035 19.6538 15.0767C19.7195 15.0498 19.7787 15.0105 19.828 14.9611C19.8772 14.9117 19.9155 14.8533 19.9404 14.7893C19.9654 14.7254 19.9764 14.6572 19.973 14.589C19.9592 14.3179 19.7149 14.1094 19.4314 14.1094Z" fill="#1D2E5B"/>
</svg>
