<svg width="33" height="33" viewBox="0 0 33 33" fill="none" xmlns="http://www.w3.org/2000/svg">
<circle cx="16.9159" cy="16.1174" r="16" fill="#EDEFF6"/>
<g clip-path="url(#clip0)">
<path d="M21.3454 8.80185C20.8525 8.93453 20.3572 9.06784 20.1697 9.41701L18.7144 12.4888L11.0584 14.5494L10.7383 15.5289L16.5739 16.0436L15.5537 18.6995L13.3319 19.2975L12.7642 20.3437L14.3606 20.5087L14.5335 21.3555C14.6119 21.6554 14.8963 21.8524 15.1416 21.7864L15.8822 21.5871L16.721 23.148L17.2887 22.1019L16.7699 19.5615L18.3982 17.3365L21.3954 23.0819L22.0209 22.319L20.2337 13.5678L21.9945 10.7126C22.1843 10.3628 22.0692 9.79911 21.9535 9.23282C21.8962 8.95231 21.5908 8.73582 21.3454 8.80185Z" fill="#1D2E5B"/>
</g>
<defs>
<clipPath id="clip0">
<rect width="14" height="16" fill="white" transform="translate(10 8)"/>
</clipPath>
</defs>
</svg>
