<svg width="33" height="32" viewBox="0 0 33 32" fill="none" xmlns="http://www.w3.org/2000/svg">
<circle cx="16.5716" cy="16" r="16" fill="#EDEFF6"/>
<g clip-path="url(#clip0)">
<path d="M13.5015 18.8571C13.5015 18.5417 13.3957 18.2723 13.1842 18.0491C12.9727 17.8259 12.7175 17.7143 12.4186 17.7143C12.1197 17.7143 11.8645 17.8259 11.653 18.0491C11.4415 18.2723 11.3357 18.5417 11.3357 18.8571C11.3357 19.1726 11.4415 19.442 11.653 19.6652C11.8645 19.8884 12.1197 20 12.4186 20C12.7175 20 12.9727 19.8884 13.1842 19.6652C13.3957 19.442 13.5015 19.1726 13.5015 18.8571ZM22.1645 18.8571C22.1645 18.5417 22.0588 18.2723 21.8473 18.0491C21.6358 17.8259 21.3806 17.7143 21.0816 17.7143C20.7827 17.7143 20.5275 17.8259 20.316 18.0491C20.1045 18.2723 19.9988 18.5417 19.9988 18.8571C19.9988 19.1726 20.1045 19.442 20.316 19.6652C20.5275 19.8884 20.7827 20 21.0816 20C21.3806 20 21.6358 19.8884 21.8473 19.6652C22.0588 19.442 22.1645 19.1726 22.1645 18.8571ZM21.7754 15.3214L21.1662 11.8929C21.138 11.756 21.0746 11.6443 20.9759 11.558C20.8772 11.4717 20.763 11.4286 20.6333 11.4286H12.867C12.7372 11.4286 12.623 11.4717 12.5243 11.558C12.4256 11.6443 12.3622 11.756 12.334 11.8929L11.7249 15.3214C11.6967 15.5 11.7361 15.6577 11.8433 15.7946C11.9505 15.9315 12.0886 16 12.2578 16H21.2424C21.4116 16 21.5498 15.9315 21.6569 15.7946C21.7641 15.6577 21.8036 15.5 21.7754 15.3214ZM19.8634 9.85714C19.8634 9.7381 19.8239 9.6369 19.745 9.55357C19.666 9.47024 19.5701 9.42857 19.4573 9.42857H14.0429C13.9301 9.42857 13.8342 9.47024 13.7553 9.55357C13.6763 9.6369 13.6368 9.7381 13.6368 9.85714C13.6368 9.97619 13.6763 10.0774 13.7553 10.1607C13.8342 10.244 13.9301 10.2857 14.0429 10.2857H19.4573C19.5701 10.2857 19.666 10.244 19.745 10.1607C19.8239 10.0774 19.8634 9.97619 19.8634 9.85714ZM23.2474 16.3304V21.7143H22.1645V22.8571C22.1645 23.1726 22.0588 23.442 21.8473 23.6652C21.6358 23.8884 21.3806 24 21.0816 24C20.7827 24 20.5275 23.8884 20.316 23.6652C20.1045 23.442 19.9988 23.1726 19.9988 22.8571V21.7143H13.5015V22.8571C13.5015 23.1726 13.3957 23.442 13.1842 23.6652C12.9727 23.8884 12.7175 24 12.4186 24C12.1197 24 11.8645 23.8884 11.653 23.6652C11.4415 23.442 11.3357 23.1726 11.3357 22.8571V21.7143H10.2528V16.3304C10.2528 15.6637 10.3233 15 10.4643 14.3393L11.3357 10.2857C11.3865 9.82143 11.6614 9.41369 12.1606 9.0625C12.6597 8.71131 13.3083 8.44643 14.1064 8.26786C14.9044 8.08929 15.7857 8 16.7501 8C17.7146 8 18.5958 8.08929 19.3939 8.26786C20.1919 8.44643 20.8405 8.71131 21.3397 9.0625C21.8388 9.41369 22.1138 9.82143 22.1645 10.2857L23.0528 14.3393C23.1826 14.9464 23.2474 15.6101 23.2474 16.3304Z" fill="#1D2E5B"/>
</g>
<defs>
<clipPath id="clip0">
<rect width="13" height="16" fill="white" transform="translate(10.25 8)"/>
</clipPath>
</defs>
</svg>
