<svg width="33" height="33" viewBox="0 0 33 33" fill="none" xmlns="http://www.w3.org/2000/svg">
<circle cx="15.7585" cy="15.7585" r="15.7585" fill="white"/>
<path d="M19.2706 12.0938C20.0464 12.0938 20.6754 11.4921 20.6754 10.75C20.6754 10.0079 20.0464 9.40625 19.2706 9.40625C18.4947 9.40625 17.8658 10.0079 17.8658 10.75C17.8658 11.4921 18.4947 12.0938 19.2706 12.0938Z" fill="#1D2E5B"/>
<path d="M18.4116 15.4323C18.5728 15.6621 18.8041 15.8389 19.074 15.9387C19.3439 16.0384 19.6394 16.0563 19.9203 15.9899L22.2495 15.4329L21.9103 14.1295L19.5811 14.6865L18.6124 13.2977C18.4055 13.0011 18.0843 12.7949 17.719 12.7239L15.0175 12.2066C14.7153 12.1486 14.4015 12.1874 14.1246 12.3169C13.8477 12.4465 13.6231 12.6597 13.4855 12.9235L12.3209 15.1514L13.5775 15.7528L14.7421 13.5242L16.1238 13.7889L12.5513 19.4844H9.4368V20.8281H12.5513C13.0416 20.8281 13.5031 20.5782 13.7559 20.1757L15.1032 18.0284L18.734 18.7231L20.0095 22.3842L21.3413 21.9589L20.0664 18.2985C19.9878 18.0738 19.8486 17.8728 19.6628 17.716C19.4771 17.5591 19.2515 17.4518 19.0086 17.4049L16.874 16.9971L18.1186 15.0124L18.4116 15.4323V15.4323Z" fill="#1D2E5B"/>
</svg>
