<svg width="33" height="33" viewBox="0 0 33 33" fill="none" xmlns="http://www.w3.org/2000/svg">
<circle cx="15.7585" cy="15.7585" r="15.7585" fill="white"/>
<g clip-path="url(#clip0)">
<path d="M11.545 19.0045C11.545 18.6865 11.4078 18.4151 11.1336 18.1901C10.8593 17.9652 10.5284 17.8527 10.1407 17.8527C9.7531 17.8527 9.42216 17.9652 9.14789 18.1901C8.87362 18.4151 8.73649 18.6865 8.73649 19.0045C8.73649 19.3224 8.87362 19.5939 9.14789 19.8188C9.42216 20.0438 9.7531 20.1562 10.1407 20.1562C10.5284 20.1562 10.8593 20.0438 11.1336 19.8188C11.4078 19.5939 11.545 19.3224 11.545 19.0045ZM22.7789 19.0045C22.7789 18.6865 22.6418 18.4151 22.3675 18.1901C22.0933 17.9652 21.7623 17.8527 21.3747 17.8527C20.9871 17.8527 20.6561 17.9652 20.3818 18.1901C20.1076 18.4151 19.9704 18.6865 19.9704 19.0045C19.9704 19.3224 20.1076 19.5939 20.3818 19.8188C20.6561 20.0438 20.9871 20.1562 21.3747 20.1562C21.7623 20.1562 22.0933 20.0438 22.3675 19.8188C22.6418 19.5939 22.7789 19.3224 22.7789 19.0045ZM22.2743 15.4411L21.4844 11.9858C21.4478 11.8478 21.3655 11.7353 21.2376 11.6483C21.1096 11.5613 20.9615 11.5179 20.7932 11.5179H10.7222C10.554 11.5179 10.4059 11.5613 10.2779 11.6483C10.1499 11.7353 10.0676 11.8478 10.031 11.9858L9.24114 15.4411C9.20457 15.6211 9.25577 15.7801 9.39473 15.918C9.53369 16.056 9.71288 16.125 9.93229 16.125H21.5831C21.8025 16.125 21.9817 16.056 22.1207 15.918C22.2597 15.7801 22.3109 15.6211 22.2743 15.4411ZM19.7949 9.93415C19.7949 9.81417 19.7437 9.71219 19.6413 9.62821C19.5389 9.54422 19.4146 9.50223 19.2683 9.50223H12.2471C12.1008 9.50223 11.9765 9.54422 11.8741 9.62821C11.7717 9.71219 11.7205 9.81417 11.7205 9.93415C11.7205 10.0541 11.7717 10.1561 11.8741 10.2401C11.9765 10.3241 12.1008 10.3661 12.2471 10.3661H19.2683C19.4146 10.3661 19.5389 10.3241 19.6413 10.2401C19.7437 10.1561 19.7949 10.0541 19.7949 9.93415ZM24.1832 16.4579V21.8839H22.7789V23.0357C22.7789 23.3537 22.6418 23.6251 22.3675 23.8501C22.0933 24.075 21.7623 24.1875 21.3747 24.1875C20.9871 24.1875 20.6561 24.075 20.3818 23.8501C20.1076 23.6251 19.9704 23.3537 19.9704 23.0357V21.8839H11.545V23.0357C11.545 23.3537 11.4078 23.6251 11.1336 23.8501C10.8593 24.075 10.5284 24.1875 10.1407 24.1875C9.7531 24.1875 9.42216 24.075 9.14789 23.8501C8.87362 23.6251 8.73649 23.3537 8.73649 23.0357V21.8839H7.33224V16.4579C7.33224 15.7861 7.42367 15.1172 7.60651 14.4513L8.73649 10.3661C8.80231 9.89816 9.15886 9.48723 9.80613 9.1333C10.4534 8.77937 11.2945 8.51242 12.3294 8.33245C13.3643 8.15248 14.5071 8.0625 15.7577 8.0625C17.0084 8.0625 18.1511 8.15248 19.186 8.33245C20.2209 8.51242 21.062 8.77937 21.7093 9.1333C22.3566 9.48723 22.7131 9.89816 22.7789 10.3661L23.9309 14.4513C24.0991 15.0632 24.1832 15.7321 24.1832 16.4579Z" fill="#1D2E5B"/>
</g>
<defs>
<clipPath id="clip0">
<rect width="16.858" height="16.125" fill="white" transform="translate(7.32956 8.0625)"/>
</clipPath>
</defs>
</svg>
