<svg width="33" height="32" viewBox="0 0 33 32" fill="none" xmlns="http://www.w3.org/2000/svg">
<circle cx="16.5716" cy="16" r="16" fill="#EDEFF6"/>
<path d="M19.5613 12.25C20.1663 12.25 20.6568 11.6157 20.6568 10.8333C20.6568 10.0509 20.1663 9.41663 19.5613 9.41663C18.9563 9.41663 18.4659 10.0509 18.4659 10.8333C18.4659 11.6157 18.9563 12.25 19.5613 12.25Z" fill="#1D2E5B"/>
<path d="M18.8915 15.7697C19.0173 16.012 19.1976 16.1984 19.4081 16.3036C19.6186 16.4087 19.849 16.4276 20.0681 16.3576L21.8843 15.7704L21.6198 14.3962L19.8035 14.9834L19.0482 13.5193C18.8868 13.2066 18.6364 12.9892 18.3515 12.9144L16.2449 12.369C16.0092 12.3078 15.7646 12.3487 15.5487 12.4853C15.3327 12.6219 15.1576 12.8466 15.0503 13.1248L14.1422 15.4736L15.1221 16.1076L16.0302 13.758L17.1076 14.0371L14.3218 20.0416H11.8932V21.4583H14.3218C14.7041 21.4583 15.064 21.1948 15.2612 20.7705L16.3117 18.5067L19.143 19.2391L20.1376 23.0988L21.1761 22.6504L20.182 18.7914C20.1206 18.5545 20.0121 18.3427 19.8673 18.1773C19.7225 18.0119 19.5465 17.8988 19.3571 17.8494L17.6926 17.4194L18.6631 15.327L18.8915 15.7697Z" fill="#1D2E5B"/>
</svg>
