<svg xmlns="http://www.w3.org/2000/svg">
  <!-- Social media -->
  <symbol viewBox="0 0 11 21" id="icon-facebook">
    <path d="M7.48786 20.8125H2.12929V11.1375H0V6.3525H2.06643C1.90929 4.185 2.30214 2.6025 3.26071 1.5225C3.71777 1.04316 4.27461 0.66015 4.89562 0.397985C5.51662 0.13582 6.18812 0.000268301 6.86714 0L10.6229 0V4.6125H7.66857C7.49452 5.1766 7.42799 5.76595 7.47214 6.3525H10.615V11.1375H7.47214L7.48786 20.8125ZM3.31571 19.6875H6.28571V10.0125H9.42857V7.5H6.28571V6.93C6.28571 5.43 6.28571 4.0875 7.07143 3.585L7.22071 3.4875H9.42857V1.125H6.89857C6.38444 1.11866 5.87465 1.21553 5.40225 1.40933C4.92986 1.60314 4.50541 1.88955 4.15643 2.25C3.37071 3.1725 3.04857 4.7175 3.29214 6.855L3.37071 7.4775H1.17857V10.0125H3.31571V19.6875Z" fill="#192144"/>
  </symbol>

  <symbol viewBox="0 0 18 18" id="icon-instagram">
    <g>
      <path d="M12.9602 1.80061C13.8189 1.80251 14.6419 2.14448 15.2491 2.75169C15.8563 3.35889 16.1982 4.18189 16.2002 5.04061V12.9606C16.1982 13.8193 15.8563 14.6423 15.2491 15.2495C14.6419 15.8567 13.8189 16.1987 12.9602 16.2006H5.04015C4.18269 16.1968 3.36153 15.854 2.75588 15.247C2.15022 14.64 1.80925 13.8181 1.80735 12.9606V5.04061C1.80925 4.18314 2.15022 3.36122 2.75588 2.75422C3.36153 2.14722 4.18269 1.80441 5.04015 1.80061H12.9602ZM12.9602 0.720612H5.04015C3.89442 0.720612 2.79561 1.17575 1.98545 1.98591C1.1753 2.79607 0.720154 3.89488 0.720154 5.04061L0.720154 12.9606C0.720154 14.1063 1.1753 15.2052 1.98545 16.0153C2.79561 16.8255 3.89442 17.2806 5.04015 17.2806H12.9602C14.1059 17.2806 15.2047 16.8255 16.0149 16.0153C16.825 15.2052 17.2802 14.1063 17.2802 12.9606V5.04061C17.2802 3.89488 16.825 2.79607 16.0149 1.98591C15.2047 1.17575 14.1059 0.720612 12.9602 0.720612V0.720612Z" fill="#192144"/>
      <path d="M9.00697 5.81737C9.63781 5.81737 10.2545 6.00444 10.779 6.35492C11.3035 6.7054 11.7124 7.20354 11.9538 7.78637C12.1952 8.36919 12.2584 9.01051 12.1353 9.62923C12.0122 10.248 11.7084 10.8163 11.2624 11.2624C10.8163 11.7084 10.248 12.0122 9.62923 12.1353C9.01051 12.2584 8.36918 12.1952 7.78636 11.9538C7.20354 11.7124 6.70539 11.3035 6.35491 10.779C6.00443 10.2545 5.81737 9.63782 5.81737 9.00697C5.81642 8.58784 5.89827 8.17265 6.05823 7.78524C6.21818 7.39784 6.45309 7.04584 6.74946 6.74947C7.04583 6.4531 7.39783 6.21819 7.78524 6.05823C8.17265 5.89828 8.58784 5.81642 9.00697 5.81737ZM9.00697 4.73737C8.16222 4.73595 7.33602 4.98514 6.63295 5.45343C5.92987 5.92171 5.3815 6.58803 5.05724 7.36807C4.73298 8.14811 4.6474 9.00681 4.81133 9.83551C4.97526 10.6642 5.38133 11.4256 5.97816 12.0235C6.57498 12.6213 7.33574 13.0287 8.16416 13.194C8.99258 13.3593 9.85142 13.2752 10.632 12.9523C11.4126 12.6293 12.0798 12.0821 12.5493 11.3798C13.0188 10.6775 13.2694 9.85173 13.2694 9.00697C13.2703 8.44662 13.1608 7.89158 12.947 7.37361C12.7332 6.85564 12.4194 6.38491 12.0235 5.98835C11.6276 5.59178 11.1574 5.27717 10.6398 5.06252C10.1222 4.84786 9.56732 4.73737 9.00697 4.73737Z" fill="#192144"/>
      <path d="M13.4282 5.55936C13.9611 5.55936 14.393 5.12741 14.393 4.59456C14.393 4.06172 13.9611 3.62976 13.4282 3.62976C12.8954 3.62976 12.4634 4.06172 12.4634 4.59456C12.4634 5.12741 12.8954 5.55936 13.4282 5.55936Z" fill="#192144"/>
    </g>
  </symbol>

  <symbol viewBox="0 0 23 12" id="icon-vk">
    <path d="M17.7664 11.8331C17.219 11.8207 16.6854 11.6573 16.2232 11.3606C15.7407 11.031 15.2975 10.6459 14.9026 10.2132C14.5761 9.88315 14.0345 9.32815 13.8268 9.32815C13.619 9.32815 13.4706 10.0181 13.478 10.5056C13.4812 10.8422 13.3564 11.167 13.1293 11.4131C12.8712 11.6263 12.5561 11.7569 12.2242 11.7881H10.7997C8.75222 11.7426 6.79178 10.9425 5.28708 9.53815C2.55676 7.01065 0.21224 2.18065 0.115789 1.97065C0.0237889 1.79521 -0.0147389 1.59616 0.00506792 1.3986C0.0248747 1.20105 0.102128 1.01386 0.227079 0.860649C0.509857 0.622256 0.867951 0.494496 1.23611 0.500649H4.26321H4.35224C4.6027 0.537588 4.84277 0.626997 5.05708 0.763149C5.25875 0.899848 5.42022 1.08899 5.5245 1.31065C5.8444 2.00295 6.2113 2.67204 6.62256 3.31315C7.5945 4.81315 8.02482 5.15815 8.18063 5.23315C8.35396 4.52985 8.40169 3.80091 8.3216 3.08065C8.3476 2.7526 8.29412 2.4231 8.16579 2.12065C8.00289 1.98893 7.80288 1.91278 7.5945 1.90315L7.05289 1.38565C6.94901 0.890649 7.49063 0.463149 7.86902 0.298149C8.62414 0.0589723 9.41638 -0.0376377 10.2061 0.013149H10.7329C11.2686 -0.000953053 11.8041 0.0494006 12.328 0.163149C13.5893 0.433149 13.5448 1.46065 13.4929 2.64565C13.4929 2.99065 13.4558 3.39565 13.4558 3.86065C13.4558 3.97315 13.4558 4.09315 13.4558 4.22065C13.4266 4.54717 13.4492 4.87631 13.5226 5.19565C14.1402 4.67331 14.6604 4.04337 15.0584 3.33565C15.4879 2.66645 15.865 1.96431 16.1861 1.23565C16.2839 1.00519 16.4516 0.812043 16.6649 0.684009C16.8782 0.555974 17.1262 0.499653 17.3732 0.523149H20.5487C20.6425 0.514104 20.7369 0.514104 20.8306 0.523149C21.5726 0.523149 22.0103 0.740649 22.1884 1.16065C22.3664 1.58065 22.3145 2.40565 20.4374 4.61815L19.6955 5.46565C19.336 5.81847 19.0264 6.21976 18.7755 6.65815C19.0565 6.98108 19.3754 7.2682 19.7251 7.51315C20.5778 8.16264 21.3283 8.93894 21.951 9.81565C22.097 9.98613 22.1925 10.1948 22.2266 10.4176C22.2608 10.6405 22.2321 10.8685 22.1439 11.0756C21.9884 11.3051 21.7803 11.4931 21.5375 11.6237C21.2946 11.7542 21.0241 11.8235 20.749 11.8256L17.9371 11.8631L17.7664 11.8331ZM13.8268 8.20315C14.4945 8.20315 15.0732 8.79565 15.689 9.41815C16.0217 9.78534 16.3951 10.1125 16.8019 10.3931C17.1096 10.6 17.4711 10.7096 17.8406 10.7081H17.9148L20.7342 10.6706C20.8732 10.6626 21.0094 10.6269 21.1348 10.5656L21.0606 10.4456C20.499 9.67196 19.8292 8.98479 19.0722 8.40565C18.1893 7.65565 17.7368 7.30315 17.6848 6.72565C17.6329 6.14815 18.0484 5.64565 18.8793 4.69315L19.6213 3.86065C20.2477 3.21479 20.7619 2.46681 21.1422 1.64815C20.9767 1.63823 20.8107 1.63823 20.6451 1.64815H17.4029C17.3443 1.6349 17.2835 1.6349 17.2248 1.64815C16.8814 2.44423 16.4719 3.20947 16.0006 3.93565C14.5984 6.05065 13.938 6.33565 13.4706 6.33565C13.3257 6.33565 13.183 6.29959 13.0551 6.23065C12.3132 5.80315 12.3132 4.85065 12.3577 4.16065C12.3577 4.04815 12.3577 3.93565 12.3577 3.83815C12.3577 3.35065 12.3577 2.93065 12.3948 2.57065C12.4542 1.31065 12.3948 1.30315 12.1129 1.23565C11.6586 1.14491 11.1958 1.10467 10.7329 1.11565H10.221C9.74988 1.10581 9.27872 1.13088 8.81127 1.19065C8.88206 1.24338 8.94459 1.30659 8.99676 1.37815C9.30278 1.8659 9.4554 2.43595 9.4345 3.01315C9.53095 4.25065 9.47902 5.86315 8.69256 6.25315C8.5533 6.31903 8.40115 6.35235 8.2474 6.35065C7.5574 6.35065 6.87482 5.69065 5.70998 3.90565C5.26298 3.22218 4.86383 2.50794 4.51547 1.76815L4.45611 1.69315C4.38118 1.65454 4.30126 1.62677 4.21869 1.61065H1.25095H1.19901C1.63676 2.52565 3.71418 6.57565 6.03643 8.69815C7.34044 9.90918 9.02993 10.6088 10.7997 10.6706H12.1722C12.2422 10.6555 12.3097 10.6303 12.3726 10.5956C12.3726 10.5956 12.3726 10.5956 12.3726 10.5281C12.3726 10.3256 12.3726 8.57815 13.5448 8.27815C13.6356 8.24202 13.7302 8.21685 13.8268 8.20315Z" fill="#192144"/>
  </symbol>

  <!-- Contacts -->

  <symbol viewBox="0 0 19 17" id="icon-telephone-1">
    <path fill-rule="evenodd" clip-rule="evenodd" d="M9.50001 1.08615C6.70357 1.08615 3.90039 1.55882 2.88328 2.50093C2.0394 3.28252 1.7581 4.66329 1.66328 5.53753C1.66328 5.53753 1.65021 5.62393 1.65021 5.66109C1.65021 6.00391 1.94451 6.27887 2.30433 6.27887C2.34684 6.27887 3.92008 6.15837 4.86857 6.08425C4.8914 6.08112 4.9144 6.07806 4.93722 6.07191C5.29049 6.0627 5.57511 5.7908 5.57511 5.45413L5.57828 4.237C5.57828 3.86014 5.9022 3.55737 6.30126 3.55737H12.6987C13.0978 3.55737 13.4218 3.86011 13.4218 4.237L13.425 5.45413C13.425 5.7908 13.7096 6.0627 14.0628 6.07191C14.0855 6.0781 14.1085 6.08112 14.1316 6.08425C15.0802 6.15834 16.6534 6.27887 16.6957 6.27887C17.0554 6.27887 17.3499 6.00391 17.3499 5.66109C17.3499 5.62393 17.3369 5.53753 17.3369 5.53753C17.242 4.66329 16.961 3.28255 16.1171 2.50093C15.0996 1.55882 12.2965 1.08615 9.50001 1.08615ZM9.50001 9.11773C8.77717 9.11773 8.1917 9.67064 8.1917 10.3533C8.1917 11.036 8.77717 11.5889 9.50001 11.5889C10.2229 11.5889 10.8083 11.036 10.8083 10.3533C10.8083 9.67064 10.2229 9.11773 9.50001 9.11773ZM8.51879 6.33752V5.56528C8.51879 5.13902 8.15242 4.79304 7.70113 4.79304C7.24983 4.79304 6.88346 5.13905 6.88346 5.56528V6.33752L2.47101 10.7889C2.16695 11.07 1.9772 11.4622 1.9772 11.8948V13.1335C1.9772 13.8162 2.5627 14.3691 3.28551 14.3691H3.6126V15.1414C3.6126 15.5677 3.97901 15.9136 4.43031 15.9136C4.8816 15.9136 5.24798 15.5677 5.24798 15.1414V14.3691H13.752V15.1414C13.752 15.5677 14.1183 15.9136 14.5698 15.9136C15.0211 15.9136 15.3874 15.5677 15.3874 15.1414V14.3691H15.7145C16.4373 14.3691 17.0228 13.8162 17.0228 13.1335V11.8948C17.0228 11.4622 16.833 11.07 16.5289 10.7889L12.1167 6.33752V5.56528C12.1167 5.13902 11.7502 4.79304 11.2989 4.79304C10.8476 4.79304 10.4813 5.13905 10.4813 5.56528V6.33752H8.51879ZM9.50001 7.8821C10.9457 7.8821 12.1167 8.98799 12.1167 10.3533C12.1167 11.7187 10.9457 12.8247 9.50001 12.8247C8.05432 12.8247 6.88342 11.7187 6.88342 10.3533C6.88342 8.98795 8.05432 7.8821 9.50001 7.8821Z" fill="currentColor"/>
  </symbol>

  <symbol viewBox="0 0 24 25" id="icon-mail-1">
    <path fill-rule="evenodd" clip-rule="evenodd" d="M19.1393 16.4663L14.8089 12.5L19.1393 8.53365L18.5488 7.90264L12.25 13.6719L5.9512 7.90264L5.36069 8.53365L9.69111 12.5L5.36069 16.4663L5.9512 17.0974L10.3308 13.0859L12.25 14.8438L14.1692 13.0859L18.5488 17.0974L19.1393 16.4663ZM4.57597 6.25C3.76695 6.25 3.11111 6.94884 3.11111 7.80786V17.1921C3.11111 18.0525 3.76163 18.75 4.57597 18.75H19.924C20.7331 18.75 21.3889 18.0512 21.3889 17.1921V7.80786C21.3889 6.94748 20.7384 6.25 19.924 6.25H4.57597Z" fill="currentColor"/>
  </symbol>

  <symbol viewBox="0 0 19 19" id="icon-telephone-2">
    <path d="M9.77423 8.22389C9.77423 8.41289 9.92786 8.56139 10.1156 8.56139C10.5048 8.56139 10.8189 8.87526 10.8189 9.25664C10.8189 9.44226 10.9725 9.59414 11.1602 9.59414C11.348 9.59414 11.5016 9.44226 11.5016 9.25664C11.5016 8.50064 10.8803 7.88639 10.1156 7.88639C9.92786 7.88639 9.77423 8.03827 9.77423 8.22389ZM15.3319 9.59414C15.5231 9.59414 15.6733 9.44226 15.6733 9.25664C15.6733 6.22589 13.1812 3.76215 10.1156 3.76215C9.92786 3.76215 9.77423 3.914 9.77423 4.09965C9.77423 4.28527 9.92786 4.43715 10.1156 4.43715C12.8057 4.43715 14.9905 6.60051 14.9905 9.25664C14.9905 9.44226 15.1441 9.59414 15.3319 9.59414Z" fill="#161C35"/>
    <path d="M12.9047 9.25661C12.9047 9.44223 13.0583 9.59411 13.2461 9.59411C13.4338 9.59411 13.5874 9.44223 13.5874 9.25661C13.5874 7.36324 12.0307 5.82424 10.1156 5.82424C9.92786 5.82424 9.77423 5.97612 9.77423 6.16174C9.77423 6.35074 9.92786 6.49924 10.1156 6.49924C11.6552 6.49924 12.9047 7.73786 12.9047 9.25661ZM10.1156 1.69998C9.92786 1.69998 9.77423 1.85186 9.77423 2.03748C9.77423 2.22312 9.92786 2.37498 10.1156 2.37498C13.9561 2.37498 17.0798 5.46312 17.0798 9.25661C17.0798 9.44223 17.23 9.59411 17.4211 9.59411C17.6089 9.59411 17.7625 9.44223 17.7625 9.25661C17.7625 5.0885 14.3316 1.69998 10.1156 1.69998ZM13.4509 12.8139L13.0037 13.0535C12.2492 13.4619 11.6621 14.5812 10.7311 13.7375L8.30007 11.3L6.2 9.25661C5.14491 7.92348 6.32631 7.60623 6.73936 6.85699L6.98175 6.41825C7.25485 5.91873 7.35384 5.35849 7.27191 4.79823C7.1934 4.23799 6.93737 3.72836 6.52771 3.32336C6.02931 2.83062 5.36703 2.56062 4.66038 2.56062C3.95372 2.56062 3.28802 2.83062 2.7896 3.32336L2.61552 3.49886C1.69379 4.41012 1.58796 5.97948 2.3151 7.92348C3.00126 9.77973 4.38386 11.7912 6.2 13.5867C8.96858 16.3239 12.0512 17.9 14.2634 17.9C15.1373 17.9 15.8781 17.6536 16.4038 17.1339L16.5813 16.9584C17.0763 16.469 17.3529 15.8142 17.3563 15.1089C17.3529 14.4204 17.0695 13.7454 16.5813 13.2627C15.7586 12.4494 14.4716 12.2671 13.4509 12.8139Z" fill="#161C35"/>
  </symbol>

  <symbol viewBox="0 0 19 17" id="icon-mail-2">
    <path d="M2.01661 3.32528L8.76661 7.55572C8.99341 7.69747 9.28681 7.76467 9.58201 7.76467C9.87721 7.76467 10.1706 7.69747 10.3974 7.55572L17.1474 3.32528C17.5875 3.04913 18.0033 1.97498 17.196 1.97498H1.96891C1.16161 1.97498 1.57741 3.04913 2.01661 3.32528ZM17.3517 5.63842L10.3974 9.86677C10.0914 10.0537 9.87721 10.0757 9.58201 10.0757C9.28681 10.0757 9.07261 10.0537 8.76661 9.86677C8.46061 9.67987 2.34691 5.94082 1.84741 5.63737C1.49641 5.42317 1.50001 5.67412 1.50001 5.86732V13.525C1.50001 13.966 2.00941 14.575 2.40001 14.575H16.8C17.1906 14.575 17.7 13.966 17.7 13.525V5.86837C17.7 5.67517 17.7036 5.42422 17.3517 5.63842Z" fill="#161C35"/>
  </symbol>

  <!-- Icon-user -->

  <symbol viewBox="0 0 14 14" id="icon-user">
    <path opacity="0.1" d="M4.375 3.92978C4.375 5.45321 5.55275 6.69294 7 6.69294C8.44725 6.69294 9.625 5.45321 9.625 3.92978C9.625 2.40636 8.44725 1.16663 7 1.16663C5.55275 1.16663 4.375 2.40636 4.375 3.92978ZM11.6667 12.8333H12.25V12.2193C12.25 9.8497 10.4177 7.92101 8.16667 7.92101H5.83333C3.58167 7.92101 1.75 9.8497 1.75 12.2193V12.8333H11.6667Z" fill="#192144"/>
  </symbol>
</svg>
