<svg width="45" height="45" viewBox="0 0 45 45" fill="none" xmlns="http://www.w3.org/2000/svg">
<ellipse cx="22.5" cy="22.6239" rx="22.5" ry="22.1352" fill="#FFD74B"/>
<path d="M28.7664 28.8542C28.219 28.8419 27.6854 28.6812 27.2232 28.3893C26.7407 28.065 26.2975 27.6862 25.9026 27.2604C25.5761 26.9358 25.0345 26.3898 24.8268 26.3898C24.619 26.3898 24.4706 27.0686 24.478 27.5482C24.4812 27.8792 24.3564 28.1989 24.1293 28.441C23.8712 28.6507 23.5561 28.7791 23.2242 28.8099H21.7997C19.7522 28.7651 17.7918 27.9779 16.2871 26.5964C13.5568 24.1099 11.2122 19.3582 11.1158 19.1516C11.0238 18.979 10.9853 18.7832 11.0051 18.5888C11.0249 18.3945 11.1021 18.2103 11.2271 18.0596C11.5099 17.8251 11.868 17.6994 12.2361 17.7054H15.2632H15.3522C15.6027 17.7418 15.8428 17.8297 16.0571 17.9637C16.2587 18.0981 16.4202 18.2842 16.5245 18.5023C16.8444 19.1834 17.2113 19.8416 17.6226 20.4723C18.5945 21.948 19.0248 22.2874 19.1806 22.3612C19.354 21.6693 19.4017 20.9522 19.3216 20.2436C19.3476 19.9209 19.2941 19.5967 19.1658 19.2992C19.0029 19.1696 18.8029 19.0947 18.5945 19.0852L18.0529 18.5761C17.949 18.0891 18.4906 17.6685 18.869 17.5062C19.6241 17.2709 20.4164 17.1759 21.2061 17.2258H21.7329C22.2686 17.212 22.8041 17.2615 23.328 17.3734C24.5893 17.639 24.5448 18.6499 24.4929 19.8156C24.4929 20.155 24.4558 20.5535 24.4558 21.0109C24.4558 21.1216 24.4558 21.2397 24.4558 21.3651C24.4266 21.6863 24.4492 22.0101 24.5226 22.3243C25.1402 21.8104 25.6604 21.1907 26.0584 20.4945C26.4879 19.8361 26.865 19.1454 27.1861 18.4285V18.4285C27.2839 18.2018 27.4516 18.0118 27.6649 17.8858C27.8782 17.7599 28.1262 17.7044 28.3732 17.7276H31.5487C31.6425 17.7187 31.7369 17.7187 31.8306 17.7276C32.5726 17.7276 33.0103 17.9415 33.1884 18.3547C33.3664 18.7679 33.3145 19.5795 31.4374 21.7562L30.6955 22.5899C30.336 22.937 30.0264 23.3318 29.7755 23.7631C30.0565 24.0808 30.3754 24.3632 30.7251 24.6042C31.5778 25.2432 32.3283 26.0069 32.951 26.8694C33.097 27.0371 33.1925 27.2423 33.2266 27.4616C33.2608 27.6808 33.2321 27.9052 33.1439 28.109C32.9884 28.3346 32.7803 28.5196 32.5375 28.6481C32.2946 28.7765 32.0241 28.8447 31.749 28.8468L28.9371 28.8837L28.7664 28.8542ZM24.8268 25.283C25.4945 25.283 26.0732 25.8659 26.689 26.4783C27.0217 26.8396 27.3951 27.1614 27.8019 27.4375C28.1096 27.641 28.4711 27.7489 28.8406 27.7474H28.9148L31.7342 27.7105C31.8732 27.7026 32.0094 27.6675 32.1348 27.6072L32.0606 27.4892C31.499 26.728 30.8292 26.052 30.0722 25.4822C29.1893 24.7444 28.7368 24.3976 28.6848 23.8295C28.6329 23.2614 29.0484 22.767 29.8793 21.8299L30.6213 21.0109C31.2477 20.3756 31.7618 19.6397 32.1422 18.8343C31.9767 18.8246 31.8107 18.8246 31.6451 18.8343H28.4029C28.3443 18.8213 28.2835 18.8213 28.2248 18.8343C27.8814 19.6175 27.4719 20.3703 27.0006 21.0847C25.5984 23.1654 24.938 23.4458 24.4706 23.4458C24.3257 23.4458 24.183 23.4103 24.0551 23.3425C23.3132 22.9219 23.3132 21.9849 23.3577 21.3061C23.3577 21.1954 23.3577 21.0847 23.3577 20.9888C23.3577 20.5092 23.3577 20.096 23.3948 19.7419C23.4542 18.5023 23.3948 18.4949 23.1129 18.4285C22.6586 18.3392 22.1958 18.2997 21.7329 18.3105H21.221C20.7499 18.3008 20.2787 18.3254 19.8113 18.3842C19.8821 18.4361 19.9446 18.4983 19.9968 18.5687C20.3028 19.0485 20.4554 19.6093 20.4345 20.1772C20.531 21.3946 20.479 22.981 19.6926 23.3646C19.5533 23.4295 19.4011 23.4622 19.2474 23.4606C18.5574 23.4606 17.8748 22.8113 16.71 21.0552C16.263 20.3828 15.8638 19.6802 15.5155 18.9524L15.4561 18.8786C15.3812 18.8406 15.3013 18.8133 15.2187 18.7974H12.251H12.199C12.6368 19.6976 14.7142 23.6819 17.0364 25.77C18.3404 26.9614 20.0299 27.6497 21.7997 27.7105H23.1722C23.2422 27.6957 23.3097 27.6708 23.3726 27.6367C23.3726 27.6367 23.3726 27.6367 23.3726 27.5703C23.3726 27.3711 23.3726 25.652 24.5448 25.3568C24.6356 25.3213 24.7302 25.2965 24.8268 25.283V25.283Z" fill="#192144"/>
</svg>
