<svg xmlns="http://www.w3.org/2000/svg" xmlns:xlink="http://www.w3.org/1999/xlink"><defs>
<clipPath id="clip0">
<rect width="27" height="33.3033" fill="white" transform="translate(0 0.0859375)"/>
</clipPath>

<clipPath id="clip0">
<rect width="17.0398" height="19.2" fill="white" transform="translate(0.0795898 0.919922)"/>
</clipPath>

<clipPath id="clip0">
<rect width="8.25" height="9" fill="white" transform="translate(0 9.0249) rotate(-90)"/>
</clipPath>

<clipPath id="clip0">
<rect width="20.8265" height="21.12" fill="white" transform="translate(0 0.959961)"/>
</clipPath>
</defs><symbol id="htmlacademy" viewBox="0 0 27 34">
<g clip-path="url(#clip0)">
<path d="M13.6426 0.101368L13.5 0.0859375L0 1.46443V25.5657L13.5 33.3892L27 25.5657V1.46443L13.6426 0.101368ZM25.2344 24.5885L13.5 31.3883L1.76561 24.5885V14.7093L13.4507 21.4834L13.4701 22.711L5.45351 18.0646L5.44295 19.2648L13.4894 23.9747L13.5088 25.2348L5.46408 20.5747L5.45351 21.7749L13.5 26.4847L21.6239 21.7509V20.5507V16.6484L25.2432 14.543L25.2344 24.5885ZM25.2344 13.2622L22.0147 15.1036L20.5325 15.9609L13.4666 11.8597L13.456 13.0599L19.4957 16.5593L19.4429 16.5901L19.3126 16.6638L18.4536 17.1456L13.4666 14.2583L13.456 15.4585L17.3921 17.7389L16.4591 18.3355L16.438 18.3475L13.4666 16.6416L13.456 17.8417L15.4029 18.9528L13.4155 20.1152L1.7973 13.3839L13.4349 6.56862L25.2344 13.2622ZM25.2344 12.062L13.4401 5.28786L1.76561 12.0552V3.01438L13.5 1.8142L25.2344 3.01438V12.062Z" fill="#192144"/>
</g>

</symbol><symbol id="icon-bicyle" viewBox="0 0 25 24">
<path d="M18.3075 21C17.4664 21 16.6443 20.7471 15.9449 20.2732C15.2456 19.7994 14.7005 19.1258 14.3787 18.3378C14.0568 17.5498 13.9726 16.6827 14.1367 15.8462C14.3008 15.0096 14.7058 14.2412 15.3005 13.6381C15.8952 13.035 16.653 12.6243 17.4779 12.4579C18.3028 12.2915 19.1579 12.3769 19.9349 12.7033C20.712 13.0297 21.3761 13.5824 21.8434 14.2916C22.3107 15.0008 22.5601 15.8346 22.5601 16.6875C22.5589 17.8309 22.1104 18.927 21.3132 19.7355C20.5159 20.544 19.435 20.9988 18.3075 21ZM18.3075 13.875C17.759 13.875 17.2228 14.04 16.7667 14.349C16.3106 14.658 15.9551 15.0973 15.7452 15.6112C15.5353 16.1251 15.4804 16.6906 15.5874 17.2362C15.6944 17.7818 15.9586 18.2829 16.3464 18.6762C16.7343 19.0696 17.2285 19.3374 17.7665 19.446C18.3045 19.5545 18.8621 19.4988 19.3689 19.2859C19.8756 19.073 20.3088 18.7126 20.6135 18.25C20.9183 17.7875 21.0809 17.2438 21.0809 16.6875C21.0801 15.9418 20.7876 15.227 20.2677 14.6997C19.7477 14.1725 19.0428 13.8759 18.3075 13.875Z" fill="#1D2E5B"/>
<path d="M6.10452 21C5.26345 21 4.44126 20.7471 3.74193 20.2732C3.0426 19.7994 2.49753 19.1258 2.17567 18.3378C1.8538 17.5498 1.76959 16.6827 1.93367 15.8462C2.09776 15.0096 2.50278 14.2412 3.09751 13.6381C3.69224 13.035 4.44997 12.6243 5.27489 12.4579C6.09981 12.2915 6.95486 12.3769 7.73191 12.7033C8.50896 13.0297 9.17312 13.5824 9.6404 14.2916C10.1077 15.0008 10.3571 15.8346 10.3571 16.6875C10.3559 17.8309 9.90743 18.927 9.11019 19.7355C8.31294 20.544 7.232 20.9988 6.10452 21ZM6.10452 13.875C5.556 13.875 5.01978 14.04 4.5637 14.349C4.10761 14.658 3.75214 15.0973 3.54223 15.6112C3.33231 16.1251 3.27739 16.6906 3.3844 17.2362C3.49142 17.7818 3.75556 18.2829 4.14343 18.6762C4.5313 19.0696 5.02547 19.3374 5.56346 19.446C6.10145 19.5545 6.65909 19.4988 7.16586 19.2859C7.67264 19.073 8.10579 18.7126 8.41053 18.25C8.71528 17.7875 8.87794 17.2438 8.87794 16.6875C8.87708 15.9418 8.58461 15.227 8.06468 14.6997C7.54475 14.1725 6.83982 13.8759 6.10452 13.875Z" fill="#1D2E5B"/>
<path d="M15.1643 6.00005C15.3591 6.00073 15.5522 5.96225 15.7322 5.88681C15.9123 5.81138 16.0758 5.7005 16.2134 5.56058C16.3509 5.42065 16.4598 5.25447 16.5336 5.07163C16.6074 4.88879 16.6448 4.69293 16.6435 4.49536C16.6456 4.29878 16.6091 4.10374 16.5361 3.92164C16.463 3.73954 16.3549 3.57403 16.218 3.4348C16.0812 3.29558 15.9183 3.18542 15.739 3.11077C15.5596 3.03612 15.3674 2.99848 15.1736 3.00005C14.9793 2.99943 14.7869 3.03762 14.6072 3.11243C14.4275 3.18725 14.2641 3.29722 14.1263 3.43607C13.9885 3.57493 13.8791 3.73994 13.8042 3.92169C13.7293 4.10344 13.6904 4.29838 13.6898 4.49536C13.6892 4.69234 13.7268 4.88752 13.8006 5.06974C13.8744 5.25197 13.9828 5.41767 14.1198 5.55739C14.2567 5.69712 14.4194 5.80812 14.5986 5.88407C14.7779 5.96002 14.9701 5.99943 15.1643 6.00005Z" fill="#1D2E5B"/>
<path d="M17.3623 9.00003H15.3395C15.3063 9.00004 15.2738 8.99099 15.2452 8.97384C15.2167 8.95668 15.1932 8.93205 15.1773 8.90253L13.7101 6.17581C13.6068 5.97318 13.4578 5.79807 13.2753 5.66467C13.0928 5.53127 12.8819 5.44333 12.6596 5.40795C12.4374 5.37258 12.21 5.39077 11.996 5.46106C11.7819 5.53135 11.5872 5.65175 11.4276 5.81253L8.19845 9.11253C7.92716 9.39333 7.77317 9.76945 7.76857 10.1625C7.76857 10.9782 8.35099 11.2688 8.6237 11.4328C9.94107 12.2025 10.8688 12.7655 11.3777 13.0782C11.4048 13.0949 11.4271 13.1183 11.4427 13.1463C11.4582 13.1743 11.4664 13.2059 11.4665 13.238V16.478C11.4665 16.8816 11.7724 17.228 12.1704 17.2482C12.2704 17.253 12.3702 17.2373 12.464 17.2019C12.5577 17.1666 12.6434 17.1123 12.7159 17.0423C12.7884 16.9724 12.8461 16.8883 12.8856 16.7951C12.925 16.7018 12.9455 16.6015 12.9456 16.5V12.4688C12.9457 12.3497 12.9178 12.2324 12.8643 12.1264C12.8107 12.0204 12.7331 11.9289 12.6378 11.8594L10.9275 10.6121C10.906 10.5965 10.8881 10.5764 10.8749 10.5532C10.8617 10.53 10.8536 10.5043 10.851 10.4776C10.8485 10.451 10.8516 10.4241 10.8602 10.3988C10.8687 10.3734 10.8825 10.3503 10.9007 10.3308L12.8421 8.23128C12.862 8.20968 12.8866 8.19316 12.914 8.18307C12.9414 8.17297 12.9708 8.1696 12.9997 8.17321C13.0287 8.17682 13.0564 8.18731 13.0805 8.20384C13.1047 8.22037 13.1247 8.24246 13.1388 8.26831L14.1474 10.1143C14.2115 10.2313 14.3053 10.3288 14.4191 10.3966C14.5329 10.4644 14.6625 10.5001 14.7945 10.5H17.3831C17.4833 10.5002 17.5824 10.4796 17.6746 10.4397C17.7667 10.3998 17.8499 10.3413 17.919 10.2678C17.9882 10.1942 18.0419 10.1073 18.0769 10.012C18.1119 9.91685 18.1275 9.81542 18.1226 9.71394C18.1032 9.31035 17.7602 9.00003 17.3623 9.00003Z" fill="#1D2E5B"/>
</symbol><symbol id="icon-bus" viewBox="0 0 18 21">
<g clip-path="url(#clip0)">
<path d="M4.34047 13.9485C4.34047 13.5699 4.20186 13.2467 3.92463 12.9788C3.64741 12.711 3.31289 12.5771 2.92108 12.5771C2.52927 12.5771 2.19475 12.711 1.91752 12.9788C1.6403 13.2467 1.50168 13.5699 1.50168 13.9485C1.50168 14.3271 1.6403 14.6503 1.91752 14.9181C2.19475 15.186 2.52927 15.3199 2.92108 15.3199C3.31289 15.3199 3.64741 15.186 3.92463 14.9181C4.20186 14.6503 4.34047 14.3271 4.34047 13.9485ZM15.6956 13.9485C15.6956 13.5699 15.557 13.2467 15.2798 12.9788C15.0026 12.711 14.668 12.5771 14.2762 12.5771C13.8844 12.5771 13.5499 12.711 13.2727 12.9788C12.9955 13.2467 12.8568 13.5699 12.8568 13.9485C12.8568 14.3271 12.9955 14.6503 13.2727 14.9181C13.5499 15.186 13.8844 15.3199 14.2762 15.3199C14.668 15.3199 15.0026 15.186 15.2798 14.9181C15.557 14.6503 15.6956 14.3271 15.6956 13.9485ZM15.1855 9.70563L14.3871 5.59135C14.3502 5.42706 14.267 5.29313 14.1376 5.18956C14.0082 5.08599 13.8585 5.0342 13.6885 5.0342H3.5088C3.33877 5.0342 3.18906 5.08599 3.05969 5.18956C2.93032 5.29313 2.84715 5.42706 2.81019 5.59135L2.01178 9.70563C1.97482 9.91992 2.02656 10.1092 2.16703 10.2735C2.30749 10.4378 2.48861 10.5199 2.71039 10.5199H14.4869C14.7087 10.5199 14.8898 10.4378 15.0303 10.2735C15.1707 10.1092 15.2225 9.91992 15.1855 9.70563ZM12.6794 3.14849C12.6794 3.00563 12.6277 2.88421 12.5242 2.78421C12.4207 2.68421 12.295 2.63421 12.1471 2.63421H5.05017C4.90232 2.63421 4.77664 2.68421 4.67314 2.78421C4.56965 2.88421 4.5179 3.00563 4.5179 3.14849C4.5179 3.29135 4.56965 3.41278 4.67314 3.51278C4.77664 3.61278 4.90232 3.66278 5.05017 3.66278H12.1471C12.295 3.66278 12.4207 3.61278 12.5242 3.51278C12.6277 3.41278 12.6794 3.29135 12.6794 3.14849ZM17.115 10.9163V17.3771H15.6956V18.7485C15.6956 19.1271 15.557 19.4503 15.2798 19.7181C15.0026 19.986 14.668 20.1199 14.2762 20.1199C13.8844 20.1199 13.5499 19.986 13.2727 19.7181C12.9955 19.4503 12.8568 19.1271 12.8568 18.7485V17.3771H4.34047V18.7485C4.34047 19.1271 4.20186 19.4503 3.92463 19.7181C3.64741 19.986 3.31289 20.1199 2.92108 20.1199C2.52927 20.1199 2.19475 19.986 1.91752 19.7181C1.6403 19.4503 1.50168 19.1271 1.50168 18.7485V17.3771H0.0822906V10.9163C0.0822906 10.1163 0.174699 9.31992 0.359516 8.52706L1.50168 3.66278C1.56822 3.10563 1.92861 2.61635 2.58286 2.19492C3.23712 1.77349 4.08727 1.45564 5.13334 1.24135C6.1794 1.02706 7.33451 0.919922 8.59866 0.919922C9.8628 0.919922 11.0179 1.02706 12.064 1.24135C13.11 1.45564 13.9602 1.77349 14.6144 2.19492C15.2687 2.61635 15.6291 3.10563 15.6956 3.66278L16.86 8.52706C17.03 9.25563 17.115 10.0521 17.115 10.9163Z" fill="#1D2E5B"/>
</g>

</symbol><symbol id="icon-businessman" viewBox="0 0 28 28">
<path d="M23.3758 23.2418V19.8933C23.3758 18.9558 23.2418 18.0182 22.7061 17.0806C22.1703 16.143 21.5006 15.3394 20.5631 14.8036C19.6255 14.1339 17.6164 14 16.6788 14L14.5358 16.277L15.3394 18.0182V22.0364L14 23.5097L12.6606 22.0364V18.0182L13.5982 16.277L11.3212 14C10.2497 14 8.24063 14.1339 7.30306 14.8036C6.36548 15.3394 5.82972 16.143 5.29396 17.0806C4.75821 18.0182 4.62427 18.8218 4.62427 19.8933V23.2418C4.62427 23.2418 8.10669 24.7151 14 24.7151C19.8934 24.7151 23.3758 23.2418 23.3758 23.2418Z" fill="#132576"/>
<path d="M14 3.41895C11.4551 3.41895 9.98178 5.82985 10.3836 8.50864C10.7854 11.1874 12.1248 13.0626 14 13.0626C15.8751 13.0626 17.2145 11.1874 17.6163 8.50864C18.0181 5.69592 16.5448 3.41895 14 3.41895Z" fill="#132576"/>
</symbol><symbol id="icon-close-white" viewBox="0 0 9 10">
<g clip-path="url(#clip0)">
<path d="M7.875 1.80615L1.125 7.99365" stroke="white" stroke-linecap="round" stroke-linejoin="round"/>
<path d="M1.125 1.80615L7.875 7.99365" stroke="white" stroke-linecap="round" stroke-linejoin="round"/>
</g>

</symbol><symbol id="icon-facebook" viewBox="0 0 11 21">
<path d="M7.48786 20.8125H2.12929V11.1375H0V6.3525H2.06643C1.90929 4.185 2.30214 2.6025 3.26071 1.5225C3.71777 1.04316 4.27461 0.66015 4.89562 0.397985C5.51662 0.13582 6.18812 0.000268301 6.86714 0L10.6229 0V4.6125H7.66857C7.49452 5.1766 7.42799 5.76595 7.47214 6.3525H10.615V11.1375H7.47214L7.48786 20.8125ZM3.31571 19.6875H6.28571V10.0125H9.42857V7.5H6.28571V6.93C6.28571 5.43 6.28571 4.0875 7.07143 3.585L7.22071 3.4875H9.42857V1.125H6.89857C6.38444 1.11866 5.87465 1.21553 5.40225 1.40933C4.92986 1.60314 4.50541 1.88955 4.15643 2.25C3.37071 3.1725 3.04857 4.7175 3.29214 6.855L3.37071 7.4775H1.17857V10.0125H3.31571V19.6875Z" fill="#192144"/>
</symbol><symbol id="icon-instagram" viewBox="0 0 18 18">
<g>
<path d="M12.9602 1.80061C13.8189 1.80251 14.6419 2.14448 15.2491 2.75169C15.8563 3.35889 16.1982 4.18189 16.2002 5.04061V12.9606C16.1982 13.8193 15.8563 14.6423 15.2491 15.2495C14.6419 15.8567 13.8189 16.1987 12.9602 16.2006H5.04015C4.18269 16.1968 3.36153 15.854 2.75588 15.247C2.15022 14.64 1.80925 13.8181 1.80735 12.9606V5.04061C1.80925 4.18314 2.15022 3.36122 2.75588 2.75422C3.36153 2.14722 4.18269 1.80441 5.04015 1.80061H12.9602ZM12.9602 0.720612H5.04015C3.89442 0.720612 2.79561 1.17575 1.98545 1.98591C1.1753 2.79607 0.720154 3.89488 0.720154 5.04061L0.720154 12.9606C0.720154 14.1063 1.1753 15.2052 1.98545 16.0153C2.79561 16.8255 3.89442 17.2806 5.04015 17.2806H12.9602C14.1059 17.2806 15.2047 16.8255 16.0149 16.0153C16.825 15.2052 17.2802 14.1063 17.2802 12.9606V5.04061C17.2802 3.89488 16.825 2.79607 16.0149 1.98591C15.2047 1.17575 14.1059 0.720612 12.9602 0.720612V0.720612Z" fill="#192144"/>
<path d="M9.00697 5.81737C9.63781 5.81737 10.2545 6.00444 10.779 6.35492C11.3035 6.7054 11.7124 7.20354 11.9538 7.78637C12.1952 8.36919 12.2584 9.01051 12.1353 9.62923C12.0122 10.248 11.7084 10.8163 11.2624 11.2624C10.8163 11.7084 10.248 12.0122 9.62923 12.1353C9.01051 12.2584 8.36918 12.1952 7.78636 11.9538C7.20354 11.7124 6.70539 11.3035 6.35491 10.779C6.00443 10.2545 5.81737 9.63782 5.81737 9.00697C5.81642 8.58784 5.89827 8.17265 6.05823 7.78524C6.21818 7.39784 6.45309 7.04584 6.74946 6.74947C7.04583 6.4531 7.39783 6.21819 7.78524 6.05823C8.17265 5.89828 8.58784 5.81642 9.00697 5.81737ZM9.00697 4.73737C8.16222 4.73595 7.33602 4.98514 6.63295 5.45343C5.92987 5.92171 5.3815 6.58803 5.05724 7.36807C4.73298 8.14811 4.6474 9.00681 4.81133 9.83551C4.97526 10.6642 5.38133 11.4256 5.97816 12.0235C6.57498 12.6213 7.33574 13.0287 8.16416 13.194C8.99258 13.3593 9.85142 13.2752 10.632 12.9523C11.4126 12.6293 12.0798 12.0821 12.5493 11.3798C13.0188 10.6775 13.2694 9.85173 13.2694 9.00697C13.2703 8.44662 13.1608 7.89158 12.947 7.37361C12.7332 6.85564 12.4194 6.38491 12.0235 5.98835C11.6276 5.59178 11.1574 5.27717 10.6398 5.06252C10.1222 4.84786 9.56732 4.73737 9.00697 4.73737Z" fill="#192144"/>
<path d="M13.4282 5.55936C13.9611 5.55936 14.393 5.12741 14.393 4.59456C14.393 4.06172 13.9611 3.62976 13.4282 3.62976C12.8954 3.62976 12.4634 4.06172 12.4634 4.59456C12.4634 5.12741 12.8954 5.55936 13.4282 5.55936Z" fill="#192144"/>
</g>
</symbol><symbol id="icon-mail-1--yellow-fill" viewBox="0 0 24 25">
<path fill-rule="evenodd" clip-rule="evenodd" d="M19.1393 16.4663L14.8089 12.5L19.1393 8.53365L18.5488 7.90264L12.25 13.6719L5.9512 7.90264L5.36069 8.53365L9.69112 12.5L5.36069 16.4663L5.9512 17.0974L10.3308 13.0859L12.25 14.8438L14.1692 13.0859L18.5488 17.0974L19.1393 16.4663ZM4.57597 6.25C3.76695 6.25 3.11111 6.94884 3.11111 7.80786V17.1921C3.11111 18.0525 3.76163 18.75 4.57597 18.75H19.924C20.7331 18.75 21.3889 18.0512 21.3889 17.1921V7.80786C21.3889 6.94748 20.7384 6.25 19.924 6.25H4.57597Z" fill="#FFD74B"/>
</symbol><symbol id="icon-mail-1" viewBox="0 0 24 25">
<path fill-rule="evenodd" clip-rule="evenodd" d="M19.1393 16.4663L14.8089 12.5L19.1393 8.53365L18.5488 7.90264L12.25 13.6719L5.9512 7.90264L5.36069 8.53365L9.69111 12.5L5.36069 16.4663L5.9512 17.0974L10.3308 13.0859L12.25 14.8438L14.1692 13.0859L18.5488 17.0974L19.1393 16.4663ZM4.57597 6.25C3.76695 6.25 3.11111 6.94884 3.11111 7.80786V17.1921C3.11111 18.0525 3.76163 18.75 4.57597 18.75H19.924C20.7331 18.75 21.3889 18.0512 21.3889 17.1921V7.80786C21.3889 6.94748 20.7384 6.25 19.924 6.25H4.57597Z" fill="currentColor"/>
</symbol><symbol id="icon-mail-2" viewBox="0 0 19 17">
<path d="M2.01661 3.32528L8.76661 7.55572C8.99341 7.69747 9.28681 7.76467 9.58201 7.76467C9.87721 7.76467 10.1706 7.69747 10.3974 7.55572L17.1474 3.32528C17.5875 3.04913 18.0033 1.97498 17.196 1.97498H1.96891C1.16161 1.97498 1.57741 3.04913 2.01661 3.32528ZM17.3517 5.63842L10.3974 9.86677C10.0914 10.0537 9.87721 10.0757 9.58201 10.0757C9.28681 10.0757 9.07261 10.0537 8.76661 9.86677C8.46061 9.67987 2.34691 5.94082 1.84741 5.63737C1.49641 5.42317 1.50001 5.67412 1.50001 5.86732V13.525C1.50001 13.966 2.00941 14.575 2.40001 14.575H16.8C17.1906 14.575 17.7 13.966 17.7 13.525V5.86837C17.7 5.67517 17.7036 5.42422 17.3517 5.63842Z" fill="#161C35"/>
</symbol><symbol id="icon-pedastrian" viewBox="0 0 21 24">
<path d="M14.9758 5.75992C15.9264 5.75992 16.697 4.90031 16.697 3.83992C16.697 2.77954 15.9264 1.91992 14.9758 1.91992C14.0253 1.91992 13.2547 2.77954 13.2547 3.83992C13.2547 4.90031 14.0253 5.75992 14.9758 5.75992Z" fill="#1D2E5B"/>
<path d="M13.9234 10.5302C14.1209 10.8586 14.4043 11.1113 14.735 11.2538C15.0657 11.3964 15.4277 11.4219 15.7719 11.327L18.6257 10.5312L18.21 8.66881L15.3563 9.46465L14.1695 7.48033C13.9159 7.05655 13.5224 6.76184 13.0748 6.66049L9.76496 5.92129C9.39468 5.83839 9.01024 5.89379 8.671 6.07893C8.33176 6.26406 8.0566 6.56863 7.888 6.94561L6.46113 10.129L8.00074 10.9882L9.42761 7.80385L11.1204 8.18209L6.74341 16.32H2.92752V18.24H6.74341C7.3441 18.24 7.90952 17.8829 8.21933 17.3078L9.86996 14.2397L14.3184 15.2323L15.8812 20.4634L17.5129 19.8557L15.9509 14.6256C15.8545 14.3045 15.684 14.0174 15.4564 13.7933C15.2289 13.5691 14.9524 13.4158 14.6549 13.3488L12.0395 12.7661L13.5645 9.93025L13.9234 10.5302Z" fill="#1D2E5B"/>
</symbol><symbol id="icon-plane" viewBox="0 0 21 23">
<g clip-path="url(#clip0)">
<path d="M16.7831 2.09314C16.0546 2.26635 15.3227 2.44038 15.0504 2.91723L12.9433 7.11585L1.62916 9.8059L1.17076 11.1474L9.82861 11.9662L8.35967 15.6009L5.07624 16.3816L4.25187 17.8101L6.62062 18.0673L6.89073 19.2357C7.01174 19.6498 7.43649 19.9263 7.79903 19.8401L8.89351 19.5799L10.1622 21.7433L10.9866 20.3148L10.1763 16.8098L12.5535 13.7795L17.0895 21.741L18.0042 20.7031L15.2128 8.62921L17.7762 4.73424C18.0519 4.25657 17.8721 3.47891 17.6914 2.69759C17.6019 2.31059 17.1457 2.00694 16.7831 2.09314Z" fill="#101D41"/>
</g>

</symbol><symbol id="icon-telephone-1--yellow-fill" viewBox="0 0 19 17">
<path fill-rule="evenodd" clip-rule="evenodd" d="M9.50001 1.08615C6.70356 1.08615 3.90039 1.55882 2.88328 2.50093C2.0394 3.28252 1.7581 4.66329 1.66328 5.53753C1.66328 5.53753 1.65021 5.62393 1.65021 5.66109C1.65021 6.00391 1.94451 6.27887 2.30433 6.27887C2.34684 6.27887 3.92008 6.15837 4.86857 6.08425C4.8914 6.08112 4.9144 6.07806 4.93722 6.07191C5.29049 6.0627 5.57511 5.7908 5.57511 5.45413L5.57828 4.237C5.57828 3.86014 5.9022 3.55737 6.30126 3.55737H12.6987C13.0979 3.55737 13.4218 3.86011 13.4218 4.237L13.425 5.45413C13.425 5.7908 13.7096 6.0627 14.0628 6.07191C14.0855 6.0781 14.1085 6.08112 14.1316 6.08425C15.0802 6.15834 16.6534 6.27887 16.6957 6.27887C17.0554 6.27887 17.3499 6.00391 17.3499 5.66109C17.3499 5.62393 17.3369 5.53753 17.3369 5.53753C17.242 4.66329 16.961 3.28255 16.1171 2.50093C15.0996 1.55882 12.2965 1.08615 9.50001 1.08615ZM9.50001 9.11773C8.77717 9.11773 8.1917 9.67064 8.1917 10.3533C8.1917 11.036 8.77717 11.5889 9.50001 11.5889C10.2229 11.5889 10.8083 11.036 10.8083 10.3533C10.8083 9.67064 10.2229 9.11773 9.50001 9.11773ZM8.51879 6.33752V5.56528C8.51879 5.13902 8.15242 4.79304 7.70113 4.79304C7.24983 4.79304 6.88346 5.13905 6.88346 5.56528V6.33752L2.47101 10.7889C2.16695 11.07 1.9772 11.4622 1.9772 11.8948V13.1335C1.9772 13.8162 2.5627 14.3691 3.28551 14.3691H3.6126V15.1414C3.6126 15.5677 3.97901 15.9136 4.43031 15.9136C4.8816 15.9136 5.24798 15.5677 5.24798 15.1414V14.3691H13.752V15.1414C13.752 15.5677 14.1183 15.9136 14.5698 15.9136C15.0211 15.9136 15.3874 15.5677 15.3874 15.1414V14.3691H15.7145C16.4373 14.3691 17.0228 13.8162 17.0228 13.1335V11.8948C17.0228 11.4622 16.833 11.07 16.5289 10.7889L12.1167 6.33752V5.56528C12.1167 5.13902 11.7502 4.79304 11.2989 4.79304C10.8476 4.79304 10.4813 5.13905 10.4813 5.56528V6.33752H8.51879ZM9.50001 7.8821C10.9457 7.8821 12.1167 8.98799 12.1167 10.3533C12.1167 11.7187 10.9457 12.8247 9.50001 12.8247C8.05432 12.8247 6.88342 11.7187 6.88342 10.3533C6.88342 8.98795 8.05432 7.8821 9.50001 7.8821Z" fill="#FFD74B"/>
</symbol><symbol id="icon-telephone-1" viewBox="0 0 19 17">
<path fill-rule="evenodd" clip-rule="evenodd" d="M9.50001 1.08615C6.70357 1.08615 3.90039 1.55882 2.88328 2.50093C2.0394 3.28252 1.7581 4.66329 1.66328 5.53753C1.66328 5.53753 1.65021 5.62393 1.65021 5.66109C1.65021 6.00391 1.94451 6.27887 2.30433 6.27887C2.34684 6.27887 3.92008 6.15837 4.86857 6.08425C4.8914 6.08112 4.9144 6.07806 4.93722 6.07191C5.29049 6.0627 5.57511 5.7908 5.57511 5.45413L5.57828 4.237C5.57828 3.86014 5.9022 3.55737 6.30126 3.55737H12.6987C13.0978 3.55737 13.4218 3.86011 13.4218 4.237L13.425 5.45413C13.425 5.7908 13.7096 6.0627 14.0628 6.07191C14.0855 6.0781 14.1085 6.08112 14.1316 6.08425C15.0802 6.15834 16.6534 6.27887 16.6957 6.27887C17.0554 6.27887 17.3499 6.00391 17.3499 5.66109C17.3499 5.62393 17.3369 5.53753 17.3369 5.53753C17.242 4.66329 16.961 3.28255 16.1171 2.50093C15.0996 1.55882 12.2965 1.08615 9.50001 1.08615ZM9.50001 9.11773C8.77717 9.11773 8.1917 9.67064 8.1917 10.3533C8.1917 11.036 8.77717 11.5889 9.50001 11.5889C10.2229 11.5889 10.8083 11.036 10.8083 10.3533C10.8083 9.67064 10.2229 9.11773 9.50001 9.11773ZM8.51879 6.33752V5.56528C8.51879 5.13902 8.15242 4.79304 7.70113 4.79304C7.24983 4.79304 6.88346 5.13905 6.88346 5.56528V6.33752L2.47101 10.7889C2.16695 11.07 1.9772 11.4622 1.9772 11.8948V13.1335C1.9772 13.8162 2.5627 14.3691 3.28551 14.3691H3.6126V15.1414C3.6126 15.5677 3.97901 15.9136 4.43031 15.9136C4.8816 15.9136 5.24798 15.5677 5.24798 15.1414V14.3691H13.752V15.1414C13.752 15.5677 14.1183 15.9136 14.5698 15.9136C15.0211 15.9136 15.3874 15.5677 15.3874 15.1414V14.3691H15.7145C16.4373 14.3691 17.0228 13.8162 17.0228 13.1335V11.8948C17.0228 11.4622 16.833 11.07 16.5289 10.7889L12.1167 6.33752V5.56528C12.1167 5.13902 11.7502 4.79304 11.2989 4.79304C10.8476 4.79304 10.4813 5.13905 10.4813 5.56528V6.33752H8.51879ZM9.50001 7.8821C10.9457 7.8821 12.1167 8.98799 12.1167 10.3533C12.1167 11.7187 10.9457 12.8247 9.50001 12.8247C8.05432 12.8247 6.88342 11.7187 6.88342 10.3533C6.88342 8.98795 8.05432 7.8821 9.50001 7.8821Z" fill="currentColor"/>
</symbol><symbol id="icon-telephone-2" viewBox="0 0 19 19">
<path d="M9.77423 8.22389C9.77423 8.41289 9.92786 8.56139 10.1156 8.56139C10.5048 8.56139 10.8189 8.87526 10.8189 9.25664C10.8189 9.44226 10.9725 9.59414 11.1602 9.59414C11.348 9.59414 11.5016 9.44226 11.5016 9.25664C11.5016 8.50064 10.8803 7.88639 10.1156 7.88639C9.92786 7.88639 9.77423 8.03827 9.77423 8.22389ZM15.3319 9.59414C15.5231 9.59414 15.6733 9.44226 15.6733 9.25664C15.6733 6.22589 13.1812 3.76215 10.1156 3.76215C9.92786 3.76215 9.77423 3.914 9.77423 4.09965C9.77423 4.28527 9.92786 4.43715 10.1156 4.43715C12.8057 4.43715 14.9905 6.60051 14.9905 9.25664C14.9905 9.44226 15.1441 9.59414 15.3319 9.59414Z" fill="#161C35"/>
<path d="M12.9047 9.25661C12.9047 9.44223 13.0583 9.59411 13.2461 9.59411C13.4338 9.59411 13.5874 9.44223 13.5874 9.25661C13.5874 7.36324 12.0307 5.82424 10.1156 5.82424C9.92786 5.82424 9.77423 5.97612 9.77423 6.16174C9.77423 6.35074 9.92786 6.49924 10.1156 6.49924C11.6552 6.49924 12.9047 7.73786 12.9047 9.25661ZM10.1156 1.69998C9.92786 1.69998 9.77423 1.85186 9.77423 2.03748C9.77423 2.22312 9.92786 2.37498 10.1156 2.37498C13.9561 2.37498 17.0798 5.46312 17.0798 9.25661C17.0798 9.44223 17.23 9.59411 17.4211 9.59411C17.6089 9.59411 17.7625 9.44223 17.7625 9.25661C17.7625 5.0885 14.3316 1.69998 10.1156 1.69998ZM13.4509 12.8139L13.0037 13.0535C12.2492 13.4619 11.6621 14.5812 10.7311 13.7375L8.30007 11.3L6.2 9.25661C5.14491 7.92348 6.32631 7.60623 6.73936 6.85699L6.98175 6.41825C7.25485 5.91873 7.35384 5.35849 7.27191 4.79823C7.1934 4.23799 6.93737 3.72836 6.52771 3.32336C6.02931 2.83062 5.36703 2.56062 4.66038 2.56062C3.95372 2.56062 3.28802 2.83062 2.7896 3.32336L2.61552 3.49886C1.69379 4.41012 1.58796 5.97948 2.3151 7.92348C3.00126 9.77973 4.38386 11.7912 6.2 13.5867C8.96858 16.3239 12.0512 17.9 14.2634 17.9C15.1373 17.9 15.8781 17.6536 16.4038 17.1339L16.5813 16.9584C17.0763 16.469 17.3529 15.8142 17.3563 15.1089C17.3529 14.4204 17.0695 13.7454 16.5813 13.2627C15.7586 12.4494 14.4716 12.2671 13.4509 12.8139Z" fill="#161C35"/>
</symbol><symbol id="icon-user" viewBox="0 0 14 14">
<path opacity="0.1" d="M4.375 3.92978C4.375 5.45321 5.55275 6.69294 7 6.69294C8.44725 6.69294 9.625 5.45321 9.625 3.92978C9.625 2.40636 8.44725 1.16663 7 1.16663C5.55275 1.16663 4.375 2.40636 4.375 3.92978ZM11.6667 12.8333H12.25V12.2193C12.25 9.8497 10.4177 7.92101 8.16667 7.92101H5.83333C3.58167 7.92101 1.75 9.8497 1.75 12.2193V12.8333H11.6667Z" fill="#192144"/>
</symbol><symbol id="icon-vk" viewBox="0 0 23 12">
<path d="M17.7664 11.8331C17.219 11.8207 16.6854 11.6573 16.2232 11.3606C15.7407 11.031 15.2975 10.6459 14.9026 10.2132C14.5761 9.88315 14.0345 9.32815 13.8268 9.32815C13.619 9.32815 13.4706 10.0181 13.478 10.5056C13.4812 10.8422 13.3564 11.167 13.1293 11.4131C12.8712 11.6263 12.5561 11.7569 12.2242 11.7881H10.7997C8.75222 11.7426 6.79178 10.9425 5.28708 9.53815C2.55676 7.01065 0.21224 2.18065 0.115789 1.97065C0.0237889 1.79521 -0.0147389 1.59616 0.00506792 1.3986C0.0248747 1.20105 0.102128 1.01386 0.227079 0.860649C0.509857 0.622256 0.867951 0.494496 1.23611 0.500649H4.26321H4.35224C4.6027 0.537588 4.84277 0.626997 5.05708 0.763149C5.25875 0.899848 5.42022 1.08899 5.5245 1.31065C5.8444 2.00295 6.2113 2.67204 6.62256 3.31315C7.5945 4.81315 8.02482 5.15815 8.18063 5.23315C8.35396 4.52985 8.40169 3.80091 8.3216 3.08065C8.3476 2.7526 8.29412 2.4231 8.16579 2.12065C8.00289 1.98893 7.80288 1.91278 7.5945 1.90315L7.05289 1.38565C6.94901 0.890649 7.49063 0.463149 7.86902 0.298149C8.62414 0.0589723 9.41638 -0.0376377 10.2061 0.013149H10.7329C11.2686 -0.000953053 11.8041 0.0494006 12.328 0.163149C13.5893 0.433149 13.5448 1.46065 13.4929 2.64565C13.4929 2.99065 13.4558 3.39565 13.4558 3.86065C13.4558 3.97315 13.4558 4.09315 13.4558 4.22065C13.4266 4.54717 13.4492 4.87631 13.5226 5.19565C14.1402 4.67331 14.6604 4.04337 15.0584 3.33565C15.4879 2.66645 15.865 1.96431 16.1861 1.23565C16.2839 1.00519 16.4516 0.812043 16.6649 0.684009C16.8782 0.555974 17.1262 0.499653 17.3732 0.523149H20.5487C20.6425 0.514104 20.7369 0.514104 20.8306 0.523149C21.5726 0.523149 22.0103 0.740649 22.1884 1.16065C22.3664 1.58065 22.3145 2.40565 20.4374 4.61815L19.6955 5.46565C19.336 5.81847 19.0264 6.21976 18.7755 6.65815C19.0565 6.98108 19.3754 7.2682 19.7251 7.51315C20.5778 8.16264 21.3283 8.93894 21.951 9.81565C22.097 9.98613 22.1925 10.1948 22.2266 10.4176C22.2608 10.6405 22.2321 10.8685 22.1439 11.0756C21.9884 11.3051 21.7803 11.4931 21.5375 11.6237C21.2946 11.7542 21.0241 11.8235 20.749 11.8256L17.9371 11.8631L17.7664 11.8331ZM13.8268 8.20315C14.4945 8.20315 15.0732 8.79565 15.689 9.41815C16.0217 9.78534 16.3951 10.1125 16.8019 10.3931C17.1096 10.6 17.4711 10.7096 17.8406 10.7081H17.9148L20.7342 10.6706C20.8732 10.6626 21.0094 10.6269 21.1348 10.5656L21.0606 10.4456C20.499 9.67196 19.8292 8.98479 19.0722 8.40565C18.1893 7.65565 17.7368 7.30315 17.6848 6.72565C17.6329 6.14815 18.0484 5.64565 18.8793 4.69315L19.6213 3.86065C20.2477 3.21479 20.7619 2.46681 21.1422 1.64815C20.9767 1.63823 20.8107 1.63823 20.6451 1.64815H17.4029C17.3443 1.6349 17.2835 1.6349 17.2248 1.64815C16.8814 2.44423 16.4719 3.20947 16.0006 3.93565C14.5984 6.05065 13.938 6.33565 13.4706 6.33565C13.3257 6.33565 13.183 6.29959 13.0551 6.23065C12.3132 5.80315 12.3132 4.85065 12.3577 4.16065C12.3577 4.04815 12.3577 3.93565 12.3577 3.83815C12.3577 3.35065 12.3577 2.93065 12.3948 2.57065C12.4542 1.31065 12.3948 1.30315 12.1129 1.23565C11.6586 1.14491 11.1958 1.10467 10.7329 1.11565H10.221C9.74988 1.10581 9.27872 1.13088 8.81127 1.19065C8.88206 1.24338 8.94459 1.30659 8.99676 1.37815C9.30278 1.8659 9.4554 2.43595 9.4345 3.01315C9.53095 4.25065 9.47902 5.86315 8.69256 6.25315C8.5533 6.31903 8.40115 6.35235 8.2474 6.35065C7.5574 6.35065 6.87482 5.69065 5.70998 3.90565C5.26298 3.22218 4.86383 2.50794 4.51547 1.76815L4.45611 1.69315C4.38118 1.65454 4.30126 1.62677 4.21869 1.61065H1.25095H1.19901C1.63676 2.52565 3.71418 6.57565 6.03643 8.69815C7.34044 9.90918 9.02993 10.6088 10.7997 10.6706H12.1722C12.2422 10.6555 12.3097 10.6303 12.3726 10.5956C12.3726 10.5956 12.3726 10.5956 12.3726 10.5281C12.3726 10.3256 12.3726 8.57815 13.5448 8.27815C13.6356 8.24202 13.7302 8.21685 13.8268 8.20315Z" fill="#192144"/>
</symbol><symbol id="map-mark" viewBox="0 0 45 45">
<circle cx="22.5" cy="22.5" r="22.5" fill="#121936"/>
<path d="M22.5 12C18.1517 12 14.625 15.5267 14.625 19.875C14.625 24.9334 18.4285 27.1449 19.2692 28.1538C21.2885 30.5769 21.4026 33 22.5 33C23.5974 33 23.7115 30.5769 25.7308 28.1538C26.5715 27.1449 30.375 24.9334 30.375 19.875C30.375 15.5267 26.8483 12 22.5 12ZM22.5 25.125C19.6007 25.125 17.25 22.7743 17.25 19.875C17.25 16.9757 19.6007 14.625 22.5 14.625C25.3993 14.625 27.75 16.9757 27.75 19.875C27.75 22.7743 25.3993 25.125 22.5 25.125ZM22.5 17.25C21.051 17.25 19.875 18.426 19.875 19.875C19.875 21.324 21.051 22.5 22.5 22.5C23.949 22.5 25.125 21.324 25.125 19.875C25.125 18.426 23.949 17.25 22.5 17.25Z" fill="#FFD74B"/>
<ellipse cx="22.5" cy="19.875" rx="0.875001" ry="0.875" fill="#161C35"/>
</symbol></svg>